<svg xmlns="http://www.w3.org/2000/svg" viewBox="0 0 300 220">
  <rect width="300" height="220" rx="20" fill="#fff7fb"/>
  <g transform="translate(30,20)">
    <circle cx="70" cy="70" r="45" fill="white"/>
    <circle cx="45" cy="40" r="18" fill="#222"/>
    <circle cx="95" cy="40" r="18" fill="#222"/>
    <circle cx="55" cy="70" r="12" fill="#222"/>
    <circle cx="85" cy="70" r="12" fill="#222"/>
    <circle cx="70" cy="92" r="8" fill="#222"/>
    <circle cx="66" cy="88" r="2" fill="white"/>
    <circle cx="59" cy="66" r="3" fill="white"/>
    <circle cx="89" cy="66" r="3" fill="white"/>
    <path d="M58 104 Q70 114 82 104" stroke="#222" stroke-width="4" fill="none" stroke-linecap="round"/>
    <ellipse cx="58" cy="100" rx="5" ry="3" fill="#ffb6c1"/>
    <ellipse cx="82" cy="100" rx="5" ry="3" fill="#ffb6c1"/>
    <circle cx="70" cy="145" r="36" fill="white"/>
    <circle cx="42" cy="142" r="14" fill="#222"/>
    <circle cx="98" cy="142" r="14" fill="#222"/>
    <circle cx="56" cy="180" r="16" fill="#222"/>
    <circle cx="84" cy="180" r="16" fill="#222"/>
    <path d="M70 150 C64 140,52 140,48 150 C44 160,52 168,70 182 C88 168,96 160,92 150 C88 140,76 140,70 150Z" fill="#ff4d8d"/>
  </g>
  <g transform="translate(150,35)">
    <circle cx="70" cy="70" r="45" fill="white"/>
    <circle cx="45" cy="40" r="18" fill="#222"/>
    <circle cx="95" cy="40" r="18" fill="#222"/>
    <circle cx="55" cy="70" r="12" fill="#222"/>
    <circle cx="85" cy="70" r="12" fill="#222"/>
    <circle cx="70" cy="92" r="8" fill="#222"/>
    <circle cx="66" cy="88" r="2" fill="white"/>
    <circle cx="59" cy="66" r="3" fill="white"/>
    <circle cx="89" cy="66" r="3" fill="white"/>
    <path d="M58 104 Q70 114 82 104" stroke="#222" stroke-width="4" fill="none" stroke-linecap="round"/>
    <ellipse cx="58" cy="100" rx="5" ry="3" fill="#ffb6c1"/>
    <ellipse cx="82" cy="100" rx="5" ry="3" fill="#ffb6c1"/>
    <circle cx="70" cy="145" r="36" fill="white"/>
    <circle cx="42" cy="142" r="14" fill="#222"/>
    <circle cx="98" cy="142" r="14" fill="#222"/>
    <circle cx="56" cy="180" r="16" fill="#222"/>
    <circle cx="84" cy="180" r="16" fill="#222"/>
    <path d="M70 150 C64 140,52 140,48 150 C44 160,52 168,70 182 C88 168,96 160,92 150 C88 140,76 140,70 150Z" fill="#ff4d8d"/>
  </g>
  <path d="M140 120 C150 110,160 110,170 120 C180 130,180 145,155 165 C130 145,130 130,140 120Z" fill="#ff6fa8"/>
</svg>